<?xml version="1.0" encoding="UTF-8" standalone="no"?>
<svg viewBox="0 0 150 150" version="1.1" width="150" height="150"
   xmlns="http://www.w3.org/2000/svg"
   xmlns:svg="http://www.w3.org/2000/svg">
   <path class="cls-2" d="m 83.674746,30.638256 c 0.513767,1.66974 0,3.29996 -1.235015,3.695165 a 5.8292715,5.8292715 0 0 1 -1.195494,0.286524 3.7840864,3.7840864 0 0 0 0.721248,0.167962 3.8038467,3.8038467 0 1 0 0.988013,-7.538533 3.9520485,3.9520485 0 0 0 -3.665525,1.561059 6.4615993,6.4615993 0 0 1 1.284415,-0.484126 c 1.205375,-0.395204 2.588592,0.642208 3.102358,2.311949 z" id="path10" style="stroke-width:0.988012" />
   <path class="cls-2" d="m 68.301278,29.828086 c -1.314056,0.06916 -2.825715,0.988012 -4.663417,2.805954 -0.138322,0.138322 2.529311,-1.393097 3.201159,-0.681728 a 2.1439863,2.1439863 0 0 0 1.887103,0.721249 c 0.988012,-0.07904 1.541299,-0.573047 1.482018,-1.422738 a 1.6993808,1.6993808 0 0 0 -1.906863,-1.422737 z" id="path12" style="stroke-width:0.988012" />
   <path class="cls-2" d="M 75,0 A 75,75 0 0 0 0,75 v 75 H 75 A 75,75 0 0 0 75,0 Z m 49.68713,76.521539 c -0.46437,-5.513108 -2.38111,-6.4616 -2.16375,-5.196944 a 22.111711,22.111711 0 0 1 0.29641,7.36069 c -0.47425,3.645765 -5.42419,8.892109 -5.42419,8.892109 0,0 -2.86524,-4.357133 -2.47003,-8.21038 0.3952,-3.853248 4.69306,-7.666974 2.24279,-6.372679 -2.08471,1.106574 -3.47781,4.781979 -3.47781,4.781979 0,0 -1.06705,-1.274536 -0.58292,-4.357133 0.48412,-3.082598 5.24634,-6.916085 5.79963,-7.459492 a 2.687393,2.687393 0 0 0 0.33592,-2.43051 7.3112897,7.3112897 0 0 0 -6.10591,-4.515215 9.4651561,9.4651561 0 0 0 -10.75945,7.904097 8.8921091,8.8921091 0 0 0 1.18561,5.68107 49.677249,49.677249 0 0 0 4.45594,6.165195 28.593071,28.593071 0 0 1 4.05084,5.928073 9.3367145,9.3367145 0 0 1 0.64221,5.098142 10.59149,10.59149 0 0 1 -11.93518,9.069952 c -0.938615,-0.118562 -1.867347,-0.266764 -2.766438,-0.444606 a 8.6648663,8.6648663 0 0 0 3.309838,5.038863 c 2.37123,1.82782 4.94006,1.23501 7.10381,2.44039 2.16375,1.20537 2.56883,2.0847 2.56883,2.0847 0,0 -2.90475,-0.60268 -3.01344,0.22725 -0.10868,0.82993 1.86735,0.92873 3.05296,1.30417 a 3.3987617,3.3987617 0 0 1 1.76854,1.67962 c 0,0 -1.80806,-0.77065 -1.53142,0 0,0.0593 0.92874,1.40298 1.73891,2.5886 0.81017,1.18561 1.44249,2.40087 0.26676,4.14965 a 57.729548,57.729548 0 0 1 -14.978264,9.66276 12.063628,12.063628 0 0 1 -0.81017,-6.58017 c 0.395205,-2.37122 1.67962,-3.26044 3.467924,-3.31972 1.7883,-0.0593 3.36912,0.30629 4.46581,-0.98801 a 1.7191411,1.7191411 0 0 0 0.33593,-1.23501 23.425767,23.425767 0 0 0 -3.85325,-3.42841 c -2.124226,-1.34369 -2.894875,-2.50955 -6.807403,-2.40087 -3.912528,0.10869 -11.945067,1.91675 -16.144119,-2.91463 a 12.290871,12.290871 0 0 1 -2.381109,-4.19905 14.069293,14.069293 0 0 1 -1.561059,0.98801 v 0 c -0.414965,0.22724 -2.351469,1.07693 -2.351469,1.07693 -2.578711,0.98802 -5.572388,1.71914 -7.508892,2.26255 -2.578711,0.73113 -3.616124,1.4919 -4.199051,2.96404 -0.652088,1.6895 0.573047,4.25833 0.573047,4.25833 a 12.676195,12.676195 0 0 1 -2.094586,3.17152 17.784218,17.784218 0 0 1 -4.367014,3.09248 c 0,0 2.321829,-4.94006 0,-2.17363 a 10.087604,10.087604 0 0 1 -4.554735,3.3296 c 1.185614,-1.38322 1.432617,-3.35924 0,-1.69938 -1.432618,1.65986 -4.762219,2.46015 -4.762219,2.46015 1.462258,-0.98801 2.746674,-2.87512 1.235015,-2.22303 a 15.007904,15.007904 0 0 1 -4.94006,0.98801 3.3888816,3.3888816 0 0 1 -1.729022,-0.2964 58.055592,58.055592 0 0 1 -12.369911,-12.84416 16.035437,16.035437 0 0 1 7.123567,-2.06494 c 2.40087,-0.0692 2.578712,0.74101 3.398762,2.33171 0.899091,1.7389 1.195494,5.92807 1.195494,5.92807 0,0 2.183507,1.33382 6.44184,0.81017 2.964036,-0.72125 4.643656,-1.8871 4.801738,-2.39099 0.158082,-0.50389 -2.302068,-7.61757 0.592808,-11.94507 a 11.085496,11.085496 0 0 1 2.717033,-2.825711 v 0 a 19.355157,19.355157 0 0 1 3.952048,-2.104466 c -7.518772,-2.796074 -9.148992,-7.528652 -9.662758,-8.684627 -0.83981,-1.887103 -0.494006,3.952049 -0.494006,3.952049 a 11.292979,11.292979 0 0 1 -1.837703,-6.639442 v 0 a 26.557766,26.557766 0 0 1 0.316164,-3.26044 26.330523,26.330523 0 0 1 -7.024766,-1.057173 c 0,0 5.513108,-2.203267 -0.177842,-1.274535 -5.443947,0.889211 -8.348703,-0.83981 -8.348703,-0.83981 0.938612,-0.217363 4.268213,-2.292189 0.81017,-1.482019 -5.187063,1.215255 -7.755895,-1.452377 -7.755895,-1.452377 1.442498,0.237122 4.416414,-0.345805 2.470031,-1.155975 a 28.593071,28.593071 0 0 1 -3.952049,-2.262547 c -0.266763,-0.158082 -4.12001,-2.796075 -4.238572,-5.562509 a 57.07746,57.07746 0 0 1 4.347253,-14.533658 13.01212,13.01212 0 0 1 4.89066,4.623897 3.6062442,3.6062442 0 0 1 -0.632327,4.94006 c -1.284416,1.235016 -2.647873,2.114346 -2.647873,3.379002 0,0.750889 0.661968,1.353576 1.333817,1.808062 0.345804,0.227243 0.681728,0.414965 0.928731,0.563167 a 77.064945,77.064945 0 0 0 17.487814,4.505335 18.189303,18.189303 0 0 1 3.626005,-7.291529 l -0.07904,-0.08892 a 22.03267,22.03267 0 0 1 -4.940061,-7.993018 c 0,0 5.325386,2.628112 0.829931,-0.988012 -4.307733,-3.458043 -4.940061,-6.767884 -4.940061,-6.767884 0.79041,0.543407 4.554736,1.640101 1.64998,-0.385324 -4.376894,-3.043078 -4.11013,-6.738243 -4.11013,-6.738243 0.790409,1.235015 3.211039,3.052958 2.519431,1.067053 A 34.471743,34.471743 0 0 1 37.544461,37.603741 C 37.4753,37.327098 37.416019,37.030694 37.346858,36.69477 37.030694,34.945989 36.625609,32.940324 38.028586,30.95442 a 57.729548,57.729548 0 0 1 12.498354,-8.062179 12.626795,12.626795 0 0 1 0.988012,6.728362 3.4975629,3.4975629 0 0 1 -3.665525,3.25056 c -1.778422,0.0988 -3.161639,-0.247003 -4.238572,1.057173 -0.750889,0.918851 0,2.598472 0.227243,3.398762 v 0 a 78.29996,78.29996 0 0 0 9.356475,17.497695 14.395337,14.395337 0 0 1 6.916084,-2.588592 c 1.531419,-0.148202 4.189172,-0.503886 1.877223,-1.067053 -2.529311,-0.612568 -5.75023,0.138321 -2.756553,-1.146094 3.645764,-1.57094 8.496904,0.326044 10.008562,0 1.511659,-0.326044 1.827823,-3.131999 1.887103,-4.475695 h -0.335924 c -1.748781,0.148202 -6.402318,0.602687 -8.072059,1.343696 a 11.233698,11.233698 0 0 1 -1.106573,-4.238572 2.3712291,2.3712291 0 0 0 0.681728,0.553287 6.8074035,6.8074035 0 0 0 2.964037,-0.118561 3.0628376,3.0628376 0 0 0 2.47991,-1.748782 2.3020682,2.3020682 0 0 0 -1.076933,-2.637992 4.5942564,4.5942564 0 0 0 -3.181399,0.434725 l -0.642208,0.405085 c -1.699381,1.076933 -1.333817,2.282308 -1.333817,2.282308 0,0 -1.620339,-0.988012 -2.776314,-4.821499 0,0 -2.134106,-1.531419 -2.104465,-2.499671 a 22.487156,22.487156 0 0 1 5.858911,-4.10025 13.130681,13.130681 0 0 1 6.975366,-4.446055 c 0,0 2.41075,-5.325385 9.959162,-5.809511 3.033197,-0.197602 -3.30984,1.511659 -4.09037,2.390989 -1.472138,1.659861 3.25056,-1.916743 10.403768,-0.899091 l 0.375444,0.0494 c 0.326044,0.0494 1.254776,0.266763 1.393097,0.306284 l 0.721249,0.217362 c 7.064287,2.37123 13.288768,10.482809 12.251348,20.866816 a 16.904887,16.904887 0 0 0 -3.112236,-6.678962 c -2.272428,-3.220919 -2.964036,-2.796074 -1.057173,0.76077 1.768542,3.329601 3.714929,10.008563 1.551179,15.284547 a 32.861283,32.861283 0 0 1 -2.707153,4.732578 15.383349,15.383349 0 0 0 -0.296404,-7.854696 c -0.899091,-3.438282 -1.620339,-3.29008 -1.146094,0.296404 0.444606,3.369121 0,9.633118 -3.556843,13.377684 a 37.544461,37.544461 0 0 1 -3.626005,2.964036 14.010012,14.010012 0 0 0 1.976025,-6.590041 c 0.296403,-3.25056 -0.375445,-3.349361 -1.076934,-0.0988 -0.632327,2.964036 -2.815834,7.904097 -6.698722,10.166645 a 42.929127,42.929127 0 0 1 -6.036754,2.420629 v 0 a 21.518904,21.518904 0 0 0 2.381109,8.467264 18.485707,18.485707 0 0 0 4.357134,4.940061 c 0.345804,0.266763 0.691608,0.533526 1.067053,0.80029 0,0 2.964036,0.582927 5.522988,1.057173 2.558951,0.474246 7.014886,2.578711 9.237913,6.155315 v 0 a 10.374127,10.374127 0 0 0 3.665527,1.244895 c 3.81372,0.494007 7.49901,-1.580819 7.97326,-5.315505 a 5.8589119,5.8589119 0 0 0 -0.34581,-3.141878 25.046107,25.046107 0 0 0 -3.49756,-5.098143 51.37663,51.37663 0 0 1 -4.65354,-6.50112 12.24147,12.24147 0 0 1 -1.590698,-7.815175 12.844158,12.844158 0 0 1 14.474378,-10.868134 13.0714,13.0714 0 0 1 9.81096,6.590041 c 3.87301,6.194836 1.60058,14.148334 1.60058,14.148334 z M 55.39784,41.348307 a 3.9520485,3.9520485 0 0 1 5.038861,0.849691 v 0 c -1.857462,-0.711369 -2.904755,0.148201 -5.621789,2.094585 -2.717033,1.946384 -5.177183,-0.988012 -5.177183,-0.988012 v 0 c 1.847583,0.671848 2.904756,-0.227243 5.760111,-1.956264 z" id="path14" style="stroke-width:0.988012" />
</svg>
